<?xml version="1.0" encoding="UTF-8" standalone="no"?>
<!DOCTYPE svg PUBLIC "-//W3C//DTD SVG 1.1//EN"
 "http://www.w3.org/Graphics/SVG/1.1/DTD/svg11.dtd">
<!-- Generated by graphviz version 14.1.2 (20260124.0452)
 -->
<!-- Title: UCube Pages: 1 -->
<svg width="1057pt" height="232pt"
 viewBox="0.00 0.00 1057.00 232.00" xmlns="http://www.w3.org/2000/svg" xmlns:xlink="http://www.w3.org/1999/xlink">
<g id="graph0" class="graph" transform="scale(1 1) rotate(0) translate(4 228)">
<title>UCube</title>
<polygon fill="white" stroke="none" points="-4,4 -4,-228 1053.25,-228 1053.25,4 -4,4"/>
<!-- Generate.GasMarketsCube.UCubePreserve -->
<g id="node1" class="node">
<title>Generate.GasMarketsCube.UCubePreserve</title>
<polygon fill="lightgreen" stroke="black" points="283,-130 0,-130 0,-94 283,-94 283,-130"/>
<text xml:space="preserve" text-anchor="middle" x="141.5" y="-106.58" font-family="Arial" font-size="14.00">Generate.GasMarketsCube.UCubePreserve</text>
</g>
<!-- Process.CMUCubeArchive -->
<g id="node2" class="node">
<title>Process.CMUCubeArchive</title>
<polygon fill="lightgreen" stroke="black" points="544.12,-36 366.88,-36 366.88,0 544.12,0 544.12,-36"/>
<text xml:space="preserve" text-anchor="middle" x="455.5" y="-12.57" font-family="Arial" font-size="14.00">Process.CMUCubeArchive</text>
</g>
<!-- Release.CMUCUBEArchive.CMUCubeClean -->
<g id="node3" class="node">
<title>Release.CMUCUBEArchive.CMUCubeClean</title>
<polygon fill="lightblue" stroke="black" points="598.5,-130 312.5,-130 312.5,-94 598.5,-94 598.5,-130"/>
<text xml:space="preserve" text-anchor="middle" x="455.5" y="-106.58" font-family="Arial" font-size="14.00">Release.CMUCUBEArchive.CMUCubeClean</text>
</g>
<!-- Release.CMUCUBEArchive.CMUCubeClean&#45;&gt;Process.CMUCubeArchive -->
<g id="edge5" class="edge">
<title>Release.CMUCUBEArchive.CMUCubeClean&#45;&gt;Process.CMUCubeArchive</title>
<path fill="none" stroke="black" d="M455.5,-93.88C455.5,-93.88 455.5,-47.9 455.5,-47.9"/>
<polygon fill="black" stroke="black" points="459,-47.9 455.5,-37.9 452,-47.9 459,-47.9"/>
</g>
<!-- Release.UCube -->
<g id="node4" class="node">
<title>Release.UCube</title>
<polygon fill="lightblue" stroke="black" points="643.12,-224 531.88,-224 531.88,-188 643.12,-188 643.12,-224"/>
<text xml:space="preserve" text-anchor="middle" x="587.5" y="-200.57" font-family="Arial" font-size="14.00">UCube Release</text>
</g>
<!-- Release.UCube&#45;&gt;Generate.GasMarketsCube.UCubePreserve -->
<g id="edge1" class="edge">
<title>Release.UCube&#45;&gt;Generate.GasMarketsCube.UCubePreserve</title>
<path fill="none" stroke="black" d="M531.47,-206C411.68,-206 141.5,-206 141.5,-206 141.5,-206 141.5,-141.64 141.5,-141.64"/>
<polygon fill="black" stroke="black" points="145,-141.64 141.5,-131.64 138,-141.64 145,-141.64"/>
</g>
<!-- Release.UCube&#45;&gt;Release.CMUCUBEArchive.CMUCubeClean -->
<g id="edge2" class="edge">
<title>Release.UCube&#45;&gt;Release.CMUCUBEArchive.CMUCubeClean</title>
<path fill="none" stroke="black" d="M565.19,-187.88C565.19,-187.88 565.19,-141.9 565.19,-141.9"/>
<polygon fill="black" stroke="black" points="568.69,-141.9 565.19,-131.9 561.69,-141.9 568.69,-141.9"/>
</g>
<!-- Release.UCube.UploadFTP -->
<g id="node5" class="node">
<title>Release.UCube.UploadFTP</title>
<polygon fill="lightblue" stroke="black" points="811.12,-130 627.88,-130 627.88,-94 811.12,-94 811.12,-130"/>
<text xml:space="preserve" text-anchor="middle" x="719.5" y="-106.58" font-family="Arial" font-size="14.00">Release.UCube.UploadFTP</text>
</g>
<!-- Release.UCube&#45;&gt;Release.UCube.UploadFTP -->
<g id="edge3" class="edge">
<title>Release.UCube&#45;&gt;Release.UCube.UploadFTP</title>
<path fill="none" stroke="black" d="M635.5,-187.88C635.5,-187.88 635.5,-141.9 635.5,-141.9"/>
<polygon fill="black" stroke="black" points="639,-141.9 635.5,-131.9 632,-141.9 639,-141.9"/>
</g>
<!-- Release.UCubeWell.UploadFTP -->
<g id="node6" class="node">
<title>Release.UCubeWell.UploadFTP</title>
<polygon fill="lightblue" stroke="black" points="1049.25,-130 839.75,-130 839.75,-94 1049.25,-94 1049.25,-130"/>
<text xml:space="preserve" text-anchor="middle" x="944.5" y="-106.58" font-family="Arial" font-size="14.00">Release.UCubeWell.UploadFTP</text>
</g>
<!-- Release.UCube&#45;&gt;Release.UCubeWell.UploadFTP -->
<g id="edge4" class="edge">
<title>Release.UCube&#45;&gt;Release.UCubeWell.UploadFTP</title>
<path fill="none" stroke="black" d="M643.28,-206C743.69,-206 944.5,-206 944.5,-206 944.5,-206 944.5,-141.64 944.5,-141.64"/>
<polygon fill="black" stroke="black" points="948,-141.64 944.5,-131.64 941,-141.64 948,-141.64"/>
</g>
</g>
</svg>
