<?xml version="1.0" encoding="UTF-8" standalone="no"?>
<!DOCTYPE svg PUBLIC "-//W3C//DTD SVG 1.1//EN"
 "http://www.w3.org/Graphics/SVG/1.1/DTD/svg11.dtd">
<!-- Generated by graphviz version 14.1.2 (20260124.0452)
 -->
<!-- Title: UCube Pages: 1 -->
<svg width="1057pt" height="232pt"
 viewBox="0.00 0.00 1057.00 232.00" xmlns="http://www.w3.org/2000/svg" xmlns:xlink="http://www.w3.org/1999/xlink">
<g id="graph0" class="graph" transform="scale(1 1) rotate(0) translate(4 228)">
<title>UCube</title>
<polygon fill="white" stroke="none" points="-4,4 -4,-228 1053.25,-228 1053.25,4 -4,4"/>
<!-- Generate.GasMarketsCube.UCubePreserve -->
<g id="node1" class="node">
<title>Generate.GasMarketsCube.UCubePreserve</title>
<path fill="lightblue" stroke="black" d="M271,-130C271,-130 12,-130 12,-130 6,-130 0,-124 0,-118 0,-118 0,-106 0,-106 0,-100 6,-94 12,-94 12,-94 271,-94 271,-94 277,-94 283,-100 283,-106 283,-106 283,-118 283,-118 283,-124 277,-130 271,-130"/>
<text xml:space="preserve" text-anchor="middle" x="141.5" y="-106.58" font-family="Arial" font-size="14.00">Generate.GasMarketsCube.UCubePreserve</text>
</g>
<!-- Process.CMUCubeArchive -->
<g id="node2" class="node">
<title>Process.CMUCubeArchive</title>
<path fill="lightblue" stroke="black" d="M532.12,-36C532.12,-36 378.88,-36 378.88,-36 372.88,-36 366.88,-30 366.88,-24 366.88,-24 366.88,-12 366.88,-12 366.88,-6 372.88,0 378.88,0 378.88,0 532.12,0 532.12,0 538.12,0 544.12,-6 544.12,-12 544.12,-12 544.12,-24 544.12,-24 544.12,-30 538.12,-36 532.12,-36"/>
<text xml:space="preserve" text-anchor="middle" x="455.5" y="-12.57" font-family="Arial" font-size="14.00">Process.CMUCubeArchive</text>
</g>
<!-- Release.CMUCUBEArchive.CMUCubeClean -->
<g id="node3" class="node">
<title>Release.CMUCUBEArchive.CMUCubeClean</title>
<path fill="lightyellow" stroke="black" d="M586.5,-130C586.5,-130 324.5,-130 324.5,-130 318.5,-130 312.5,-124 312.5,-118 312.5,-118 312.5,-106 312.5,-106 312.5,-100 318.5,-94 324.5,-94 324.5,-94 586.5,-94 586.5,-94 592.5,-94 598.5,-100 598.5,-106 598.5,-106 598.5,-118 598.5,-118 598.5,-124 592.5,-130 586.5,-130"/>
<text xml:space="preserve" text-anchor="middle" x="455.5" y="-106.58" font-family="Arial" font-size="14.00">Release.CMUCUBEArchive.CMUCubeClean</text>
</g>
<!-- Release.CMUCUBEArchive.CMUCubeClean&#45;&gt;Process.CMUCubeArchive -->
<g id="edge5" class="edge">
<title>Release.CMUCUBEArchive.CMUCubeClean&#45;&gt;Process.CMUCubeArchive</title>
<path fill="none" stroke="black" d="M455.5,-93.88C455.5,-93.88 455.5,-47.9 455.5,-47.9"/>
<polygon fill="black" stroke="black" points="459,-47.9 455.5,-37.9 452,-47.9 459,-47.9"/>
</g>
<!-- Release.UCube -->
<g id="node4" class="node">
<title>Release.UCube</title>
<path fill="lightyellow" stroke="black" d="M631.12,-224C631.12,-224 543.88,-224 543.88,-224 537.88,-224 531.88,-218 531.88,-212 531.88,-212 531.88,-200 531.88,-200 531.88,-194 537.88,-188 543.88,-188 543.88,-188 631.12,-188 631.12,-188 637.12,-188 643.12,-194 643.12,-200 643.12,-200 643.12,-212 643.12,-212 643.12,-218 637.12,-224 631.12,-224"/>
<text xml:space="preserve" text-anchor="middle" x="587.5" y="-200.57" font-family="Arial" font-size="14.00">Release.UCube</text>
</g>
<!-- Release.UCube&#45;&gt;Generate.GasMarketsCube.UCubePreserve -->
<g id="edge1" class="edge">
<title>Release.UCube&#45;&gt;Generate.GasMarketsCube.UCubePreserve</title>
<path fill="none" stroke="black" d="M531.47,-206C411.68,-206 141.5,-206 141.5,-206 141.5,-206 141.5,-141.64 141.5,-141.64"/>
<polygon fill="black" stroke="black" points="145,-141.64 141.5,-131.64 138,-141.64 145,-141.64"/>
</g>
<!-- Release.UCube&#45;&gt;Release.CMUCUBEArchive.CMUCubeClean -->
<g id="edge2" class="edge">
<title>Release.UCube&#45;&gt;Release.CMUCUBEArchive.CMUCubeClean</title>
<path fill="none" stroke="black" d="M565.19,-187.88C565.19,-187.88 565.19,-141.9 565.19,-141.9"/>
<polygon fill="black" stroke="black" points="568.69,-141.9 565.19,-131.9 561.69,-141.9 568.69,-141.9"/>
</g>
<!-- Release.UCube.UploadFTP -->
<g id="node5" class="node">
<title>Release.UCube.UploadFTP</title>
<path fill="lightyellow" stroke="black" d="M799.12,-130C799.12,-130 639.88,-130 639.88,-130 633.88,-130 627.88,-124 627.88,-118 627.88,-118 627.88,-106 627.88,-106 627.88,-100 633.88,-94 639.88,-94 639.88,-94 799.12,-94 799.12,-94 805.12,-94 811.12,-100 811.12,-106 811.12,-106 811.12,-118 811.12,-118 811.12,-124 805.12,-130 799.12,-130"/>
<text xml:space="preserve" text-anchor="middle" x="719.5" y="-106.58" font-family="Arial" font-size="14.00">Release.UCube.UploadFTP</text>
</g>
<!-- Release.UCube&#45;&gt;Release.UCube.UploadFTP -->
<g id="edge3" class="edge">
<title>Release.UCube&#45;&gt;Release.UCube.UploadFTP</title>
<path fill="none" stroke="black" d="M635.5,-187.88C635.5,-187.88 635.5,-141.9 635.5,-141.9"/>
<polygon fill="black" stroke="black" points="639,-141.9 635.5,-131.9 632,-141.9 639,-141.9"/>
</g>
<!-- Release.UCubeWell.UploadFTP -->
<g id="node6" class="node">
<title>Release.UCubeWell.UploadFTP</title>
<path fill="lightyellow" stroke="black" d="M1037.25,-130C1037.25,-130 851.75,-130 851.75,-130 845.75,-130 839.75,-124 839.75,-118 839.75,-118 839.75,-106 839.75,-106 839.75,-100 845.75,-94 851.75,-94 851.75,-94 1037.25,-94 1037.25,-94 1043.25,-94 1049.25,-100 1049.25,-106 1049.25,-106 1049.25,-118 1049.25,-118 1049.25,-124 1043.25,-130 1037.25,-130"/>
<text xml:space="preserve" text-anchor="middle" x="944.5" y="-106.58" font-family="Arial" font-size="14.00">Release.UCubeWell.UploadFTP</text>
</g>
<!-- Release.UCube&#45;&gt;Release.UCubeWell.UploadFTP -->
<g id="edge4" class="edge">
<title>Release.UCube&#45;&gt;Release.UCubeWell.UploadFTP</title>
<path fill="none" stroke="black" d="M643.28,-206C743.69,-206 944.5,-206 944.5,-206 944.5,-206 944.5,-141.64 944.5,-141.64"/>
<polygon fill="black" stroke="black" points="948,-141.64 944.5,-131.64 941,-141.64 948,-141.64"/>
</g>
</g>
</svg>
